<svg version="1.1" viewBox="0.0 0.0 50.0 50.0" fill="none" stroke="none" stroke-linecap="square" stroke-miterlimit="10" xmlns:xlink="http://www.w3.org/1999/xlink" xmlns="http://www.w3.org/2000/svg"><clipPath id="p.0"><path d="m0 0l50.0 0l0 50.0l-50.0 0l0 -50.0z" clip-rule="nonzero"/></clipPath><g clip-path="url(#p.0)"><path fill="#000000" fill-opacity="0.0" d="m0 0l50.0 0l0 50.0l-50.0 0z" fill-rule="evenodd"/><path fill="#000000" fill-opacity="0.0" d="m4.3385825 25.0l0 0c0 -11.332709 9.250431 -20.519686 20.661417 -20.519686l0 0c5.479748 0 10.735062 2.1618896 14.609829 6.010077c3.8747673 3.8481874 6.05159 9.067449 6.05159 14.509608l0 0c0 11.33271 -9.250435 20.519684 -20.661419 20.519684l0 0c-11.410986 0 -20.661417 -9.186974 -20.661417 -20.519684z" fill-rule="evenodd"/><path stroke="#ff9900" stroke-width="8.0" stroke-linejoin="round" stroke-linecap="butt" d="m4.3385825 25.0l0 0c0 -11.332709 9.250431 -20.519686 20.661417 -20.519686l0 0c5.479748 0 10.735062 2.1618896 14.609829 6.010077c3.8747673 3.8481874 6.05159 9.067449 6.05159 14.509608l0 0c0 11.33271 -9.250435 20.519684 -20.661419 20.519684l0 0c-11.410986 0 -20.661417 -9.186974 -20.661417 -20.519684z" fill-rule="evenodd"/></g></svg>