<svg version="1.1" viewBox="0.0 0.0 50.0 50.0" fill="none" stroke="none" stroke-linecap="square" stroke-miterlimit="10" xmlns:xlink="http://www.w3.org/1999/xlink" xmlns="http://www.w3.org/2000/svg"><clipPath id="p.0"><path d="m0 0l50.0 0l0 50.0l-50.0 0l0 -50.0z" clip-rule="nonzero"/></clipPath><g clip-path="url(#p.0)"><path fill="#000000" fill-opacity="0.0" d="m0 0l50.0 0l0 50.0l-50.0 0z" fill-rule="evenodd"/><path fill="#990000" d="m0.03937008 8.359747l0 0c0 -4.5952177 3.7251594 -8.320376 8.320376 -8.320376l33.28051 0l0 0c2.2066994 0 4.323021 0.8766086 5.8833923 2.436982c1.5603752 1.5603731 2.4369812 3.6766937 2.4369812 5.883395l0 33.28051c0 4.595215 -3.7251587 8.320374 -8.320374 8.320374l-33.28051 0c-4.5952177 0 -8.320376 -3.7251587 -8.320376 -8.320374z" fill-rule="evenodd"/><path fill="#efefef" d="m2.2125983 10.018522l0 0c0 -4.1371446 3.353819 -7.490963 7.4909635 -7.490963l30.592875 0l0 0c1.9867287 0 3.892086 0.78922415 5.296913 2.1940525c1.4048271 1.4048281 2.1940536 3.310184 2.1940536 5.296911l0 29.962954c0 4.137146 -3.3538208 7.490967 -7.490967 7.490967l-30.592875 0c-4.1371446 0 -7.4909635 -3.3538208 -7.4909635 -7.490967z" fill-rule="evenodd"/><path fill="#990000" d="m12.157605 7.498872l28.973755 17.501312l-28.973755 17.501312z" fill-rule="evenodd"/><path fill="#000000" fill-opacity="0.327" d="m0.03937008 8.359747l0 0c0 -4.5952177 3.7251594 -8.320376 8.320376 -8.320376l33.28051 0l0 0c2.2066994 0 4.323021 0.8766086 5.8833923 2.436982c1.5603752 1.5603731 2.4369812 3.6766937 2.4369812 5.883395l0 33.28051c0 4.595215 -3.7251587 8.320374 -8.320374 8.320374l-33.28051 0c-4.5952177 0 -8.320376 -3.7251587 -8.320376 -8.320374z" fill-rule="evenodd"/></g></svg>