<svg version="1.1" viewBox="0.0 0.0 25.0 25.0" fill="none" stroke="none" stroke-linecap="square" stroke-miterlimit="10" xmlns:xlink="http://www.w3.org/1999/xlink" xmlns="http://www.w3.org/2000/svg"><clipPath id="p.0"><path d="m0 0l25.0 0l0 25.0l-25.0 0l0 -25.0z" clip-rule="nonzero"/></clipPath><g clip-path="url(#p.0)"><path fill="#000000" fill-opacity="0.0" d="m0 0l25.0 0l0 25.0l-25.0 0z" fill-rule="evenodd"/><path fill="#1155cc" d="m0.003692126 4.2977567l0 0c0 -2.287461 1.8543538 -4.1418147 4.141815 -4.1418147l16.724243 0l0 0c1.0984783 0 2.1519642 0.43636858 2.9287052 1.2131096c0.776741 0.7767409 1.21311 1.8302277 1.21311 2.9287052l0 16.566765c0 2.2874603 -1.854353 4.141815 -4.141815 4.141815l-16.724243 0c-2.2874613 0 -4.141815 -1.8543549 -4.141815 -4.141815z" fill-rule="evenodd"/><path fill="#f3f3f3" d="m4.0748034 10.106299l8.425197 -8.425197l8.425198 8.425197l-4.212599 0l0 13.212598l-8.425198 0l0 -13.212598z" fill-rule="evenodd"/></g></svg>